<svg xmlns="http://www.w3.org/2000/svg" xmlns:xlink="http://www.w3.org/1999/xlink" width="73.405" height="81.32" viewBox="0 0 73.405 81.32">
  <defs>
    <filter id="Icon_awesome-calendar-alt" x="0" y="0" width="73.405" height="81.32" filterUnits="userSpaceOnUse">
      <feOffset dy="3" input="SourceAlpha"/>
      <feGaussianBlur stdDeviation="3" result="blur"/>
      <feFlood flood-opacity="0.161"/>
      <feComposite operator="in" in2="blur"/>
      <feComposite in="SourceGraphic"/>
    </filter>
  </defs>
  <g transform="matrix(1, 0, 0, 1, 0, 0)" filter="url(#Icon_awesome-calendar-alt)">
    <path id="Icon_awesome-calendar-alt-2" data-name="Icon awesome-calendar-alt" d="M0,57.384A5.938,5.938,0,0,0,5.936,63.32H49.469A5.938,5.938,0,0,0,55.4,57.384V23.745H0Zm39.575-24.24a1.488,1.488,0,0,1,1.484-1.484h4.947a1.488,1.488,0,0,1,1.484,1.484v4.947a1.488,1.488,0,0,1-1.484,1.484H41.059a1.488,1.488,0,0,1-1.484-1.484Zm0,15.83a1.488,1.488,0,0,1,1.484-1.484h4.947a1.488,1.488,0,0,1,1.484,1.484v4.947A1.488,1.488,0,0,1,46.006,55.4H41.059a1.488,1.488,0,0,1-1.484-1.484Zm-15.83-15.83a1.488,1.488,0,0,1,1.484-1.484h4.947a1.488,1.488,0,0,1,1.484,1.484v4.947a1.488,1.488,0,0,1-1.484,1.484H25.229a1.488,1.488,0,0,1-1.484-1.484Zm0,15.83a1.488,1.488,0,0,1,1.484-1.484h4.947a1.488,1.488,0,0,1,1.484,1.484v4.947A1.488,1.488,0,0,1,30.176,55.4H25.229a1.488,1.488,0,0,1-1.484-1.484ZM7.915,33.144A1.488,1.488,0,0,1,9.4,31.66h4.947a1.488,1.488,0,0,1,1.484,1.484v4.947a1.488,1.488,0,0,1-1.484,1.484H9.4a1.488,1.488,0,0,1-1.484-1.484Zm0,15.83A1.488,1.488,0,0,1,9.4,47.49h4.947a1.488,1.488,0,0,1,1.484,1.484v4.947A1.488,1.488,0,0,1,14.346,55.4H9.4a1.488,1.488,0,0,1-1.484-1.484ZM49.469,7.915H43.532V1.979A1.985,1.985,0,0,0,41.554,0H37.6a1.985,1.985,0,0,0-1.979,1.979V7.915H19.787V1.979A1.985,1.985,0,0,0,17.809,0H13.851a1.985,1.985,0,0,0-1.979,1.979V7.915H5.936A5.938,5.938,0,0,0,0,13.851v5.936H55.4V13.851A5.938,5.938,0,0,0,49.469,7.915Z" transform="translate(9 6)" fill="#f0f0f0"/>
  </g>
</svg>
