<svg xmlns="http://www.w3.org/2000/svg" xmlns:xlink="http://www.w3.org/1999/xlink" width="84.147" height="84.147" viewBox="0 0 84.147 84.147">
  <defs>
    <filter id="Icon_material-help" x="0" y="0" width="84.147" height="84.147" filterUnits="userSpaceOnUse">
      <feOffset dy="3" input="SourceAlpha"/>
      <feGaussianBlur stdDeviation="3" result="blur"/>
      <feFlood flood-opacity="0.161"/>
      <feComposite operator="in" in2="blur"/>
      <feComposite in="SourceGraphic"/>
    </filter>
  </defs>
  <g id="Icon_material-help-2" data-name="Icon material-help" transform="translate(9 6)">
    <g transform="matrix(1, 0, 0, 1, -9, -6)" filter="url(#Icon_material-help)">
      <path id="Icon_material-help-3" data-name="Icon material-help" d="M36.073,3A33.073,33.073,0,1,0,69.147,36.073,33.085,33.085,0,0,0,36.073,3Zm3.307,56.225H32.766V52.61h6.615Zm6.846-25.632L43.25,36.636c-2.381,2.414-3.87,4.4-3.87,9.36H32.766V44.342a13.312,13.312,0,0,1,3.87-9.36l4.1-4.167a6.467,6.467,0,0,0,1.951-4.663,6.615,6.615,0,1,0-13.229,0H22.844a13.229,13.229,0,1,1,26.459,0A10.524,10.524,0,0,1,46.227,33.593Z" transform="translate(6 3)" fill="#f0f0f0"/>
    </g>
  </g>
</svg>
