
<svg xmlns="http://www.w3.org/2000/svg" xmlns:xlink="http://www.w3.org/1999/xlink" width="90.218" height="74.159" viewBox="0 0 90.218 74.159">
  <defs>
    <filter id="Icon_awesome-home" x="0" y="0" width="90.218" height="74.159" filterUnits="userSpaceOnUse">
      <feOffset dy="3" input="SourceAlpha"/>
      <feGaussianBlur stdDeviation="3" result="blur"/>
      <feFlood flood-opacity="0.161"/>
      <feComposite operator="in" in2="blur"/>
      <feComposite in="SourceGraphic"/>
    </filter>
  </defs>
  <g transform="matrix(1, 0, 0, 1, 0, 0)" filter="url(#Icon_awesome-home)">
    <path id="Icon_awesome-home-2" data-name="Icon awesome-home" d="M35.15,16.823,12.036,35.86V56.406a2.006,2.006,0,0,0,2.006,2.006l14.049-.036a2.006,2.006,0,0,0,2-2.006v-12a2.006,2.006,0,0,1,2.006-2.006h8.024a2.006,2.006,0,0,1,2.006,2.006v11.99a2.006,2.006,0,0,0,2.006,2.012l14.044.039a2.006,2.006,0,0,0,2.006-2.006V35.846L37.068,16.823A1.528,1.528,0,0,0,35.15,16.823ZM71.661,29.762,61.18,21.123V3.758a1.5,1.5,0,0,0-1.5-1.5H52.655a1.5,1.5,0,0,0-1.5,1.5v9.1L39.927,3.626a6.018,6.018,0,0,0-7.647,0L.545,29.762a1.5,1.5,0,0,0-.2,2.119l3.2,3.886a1.5,1.5,0,0,0,2.12.2L35.15,11.682a1.528,1.528,0,0,1,1.918,0l29.49,24.289a1.5,1.5,0,0,0,2.119-.2l3.2-3.886a1.5,1.5,0,0,0-.213-2.122Z" transform="translate(9 3.75)" fill="#f0f0f0"/>
  </g>
</svg>