<svg xmlns="http://www.w3.org/2000/svg" xmlns:xlink="http://www.w3.org/1999/xlink" width="91.5" height="105" viewBox="0 0 91.5 105">
  <defs>
    <filter id="Icon_awesome-calendar-alt" x="0" y="0" width="91.5" height="105" filterUnits="userSpaceOnUse">
      <feOffset dy="3" input="SourceAlpha"/>
      <feGaussianBlur stdDeviation="3" result="blur"/>
      <feFlood flood-opacity="0.161"/>
      <feComposite operator="in" in2="blur"/>
      <feComposite in="SourceGraphic"/>
    </filter>
  </defs>
  <g transform="matrix(1, 0, 0, 1, 0, 0)" filter="url(#Icon_awesome-calendar-alt)">
    <path id="Icon_awesome-calendar-alt-2" data-name="Icon awesome-calendar-alt" d="M0,78.844A8.021,8.021,0,0,0,7.875,87h57.75A8.021,8.021,0,0,0,73.5,78.844V32.625H0Zm52.5-33.3A2.011,2.011,0,0,1,54.469,43.5h6.562A2.011,2.011,0,0,1,63,45.539v6.8a2.011,2.011,0,0,1-1.969,2.039H54.469A2.011,2.011,0,0,1,52.5,52.336Zm0,21.75a2.011,2.011,0,0,1,1.969-2.039h6.562A2.011,2.011,0,0,1,63,67.289v6.8a2.011,2.011,0,0,1-1.969,2.039H54.469A2.011,2.011,0,0,1,52.5,74.086Zm-21-21.75A2.011,2.011,0,0,1,33.469,43.5h6.563A2.011,2.011,0,0,1,42,45.539v6.8a2.011,2.011,0,0,1-1.969,2.039H33.469A2.011,2.011,0,0,1,31.5,52.336Zm0,21.75a2.011,2.011,0,0,1,1.969-2.039h6.563A2.011,2.011,0,0,1,42,67.289v6.8a2.011,2.011,0,0,1-1.969,2.039H33.469A2.011,2.011,0,0,1,31.5,74.086Zm-21-21.75A2.011,2.011,0,0,1,12.469,43.5h6.563A2.011,2.011,0,0,1,21,45.539v6.8a2.011,2.011,0,0,1-1.969,2.039H12.469A2.011,2.011,0,0,1,10.5,52.336Zm0,21.75a2.011,2.011,0,0,1,1.969-2.039h6.563A2.011,2.011,0,0,1,21,67.289v6.8a2.011,2.011,0,0,1-1.969,2.039H12.469A2.011,2.011,0,0,1,10.5,74.086ZM65.625,10.875H57.75V2.719A2.681,2.681,0,0,0,55.125,0h-5.25A2.681,2.681,0,0,0,47.25,2.719v8.156h-21V2.719A2.681,2.681,0,0,0,23.625,0h-5.25A2.681,2.681,0,0,0,15.75,2.719v8.156H7.875A8.021,8.021,0,0,0,0,19.031v8.156H73.5V19.031A8.021,8.021,0,0,0,65.625,10.875Z" transform="translate(9 6)" fill="#404040"/>
  </g>
</svg>
